<?xml version="1.0" standalone="no"?>
<!DOCTYPE svg PUBLIC "-//W3C//DTD SVG 1.1//EN" "http://www.w3.org/Graphics/SVG/1.1/DTD/svg11.dtd" >
<svg xmlns="http://www.w3.org/2000/svg" xmlns:xlink="http://www.w3.org/1999/xlink" version="1.1">
<metadata>
Created by FontForge 20170731 at Tue Sep 30 17:04:41 2014
 By Aleksey,,,
</metadata>
<defs>
<font id="Circe-Bold" horiz-adv-x="1220" >
  <font-face 
    font-family="Circe Bold"
    font-weight="700"
    font-stretch="normal"
    units-per-em="2048"
    panose-1="2 11 6 2 2 2 3 2 2 3"
    ascent="1583"
    descent="-465"
    x-height="922"
    cap-height="1434"
    bbox="-100 -442.036 2302 1817"
    underline-thickness="102"
    underline-position="-306"
    unicode-range="U+000D-2116"
  />
<missing-glyph horiz-adv-x="748" 
d="M68 0v1365h544v-1365h-544zM136 68h408v1229h-408v-1229z" />
    <glyph glyph-name=".notdef" horiz-adv-x="748" 
d="M68 0v1365h544v-1365h-544zM136 68h408v1229h-408v-1229z" />
    <glyph glyph-name="glyph1" horiz-adv-x="2048" 
 />
    <glyph glyph-name="glyph1" horiz-adv-x="2048" 
 />
    <glyph glyph-name="uni000D" unicode="&#xd;" horiz-adv-x="681" 
 />
    <glyph glyph-name="space" unicode=" " horiz-adv-x="434" 
 />
    <glyph glyph-name="exclam" unicode="!" horiz-adv-x="634" 
d="M193 496v938h249v-938h-249zM160 154q0 57 45 104t119 47q63 0 106 -47t43 -104q0 -66 -43 -115t-106 -49q-74 0 -119 49t-45 115z" />
    <glyph glyph-name="quotedbl" unicode="&#x22;" horiz-adv-x="884" 
d="M510 940v494h235v-494h-235zM137 940v494h236v-494h-236z" />
    <glyph glyph-name="numbersign" unicode="#" horiz-adv-x="1482" 
d="M641 43l121 326h-313l-146 -392l-182 64l121 328h-160v204h235l107 287h-342v205h420l145 391l182 -65l-120 -326h309l145 391l183 -63l-121 -328h176v-205h-252l-107 -287h359v-204h-434l-144 -392zM631 860l-107 -287h314l104 287h-311z" />
    <glyph glyph-name="dollar" unicode="$" 
d="M815 381q0 57 -36 101t-93 76t-125.5 61.5t-138.5 67.5t-127 84t-93 121t-36 169q0 137 92 243.5t246 139.5v174h235v-170q195 -31 299 -145l-135 -189q-111 106 -254 107q-106 0 -161.5 -42t-55.5 -116q0 -70 48 -121t120 -81t157 -70.5t156.5 -84.5t119.5 -127t48 -196
q0 -152 -94 -257.5t-248 -135.5v-195h-235v193q-121 20 -218.5 75.5t-135.5 139.5l143 172q59 -78 150.5 -120t179.5 -42q90 0 141 44t51 124z" />
    <glyph glyph-name="percent" unicode="%" horiz-adv-x="1865" 
d="M348 72l1034 1384l134 -100l-1033 -1379zM76 1087.5q0 163.5 113.5 264t289.5 100.5t290 -100.5t114 -264t-114 -265t-290 -101.5t-289.5 101.5t-113.5 265zM297 1087q0 -80 52 -128t130 -48q82 0 133.5 48.5t51.5 127.5q0 78 -52.5 126.5t-132.5 48.5q-78 0 -130 -48.5
t-52 -126.5zM981 346q0 164 113.5 264.5t290 100.5t290 -100.5t113.5 -264.5t-113.5 -265t-290 -101t-290 101t-113.5 265zM1202 346q0 -80 52.5 -128t129.5 -48q82 0 133.5 48t51.5 128q0 78 -52.5 126t-132.5 48q-78 0 -130 -48t-52 -126z" />
    <glyph glyph-name="ampersand" unicode="&#x26;" horiz-adv-x="1542" 
d="M1147 0l-121 150q-156 -172 -422 -173q-215 0 -348 116t-133 296q0 162 81 267.5t236 213.5q-164 78 -164 275q0 141 100.5 226t240 85t239.5 -85t100 -226q0 -94 -54 -173t-130 -104l279 -362q96 188 96 416h233q0 -352 -188 -605l248 -317h-293zM612 213q180 0 273 125
l-291 397q-109 -88 -157 -154.5t-48 -144.5q0 -94 64.5 -158.5t158.5 -64.5zM496 1145q0 -49 34.5 -84t86 -35t86 35t34.5 84q0 51 -35.5 86t-85.5 35q-51 0 -85.5 -35t-34.5 -86z" />
    <glyph glyph-name="quotesingle" unicode="'" horiz-adv-x="512" 
d="M137 940v494h236v-494h-236z" />
    <glyph glyph-name="parenleft" unicode="(" horiz-adv-x="645" 
d="M645 -293l-149 -129q-414 356 -414 883q0 508 416 882l145 -129q-168 -166 -247 -347t-79 -406q0 -219 89 -417t239 -337z" />
    <glyph glyph-name="parenright" unicode=")" horiz-adv-x="645" 
d="M150 -422l-150 129q150 139 239 337t89 417q0 225 -79 406.5t-247 346.5l145 129q416 -375 416 -882q1 -527 -413 -883z" />
    <glyph glyph-name="asterisk" unicode="*" horiz-adv-x="1105" 
d="M408 1307q0 61 44 104t105 43q59 0 103.5 -44t44.5 -103q0 -61 -43.5 -105.5t-104.5 -44.5q-63 0 -106 43.5t-43 106.5zM403 680q0 61 43 106t105 45q59 0 103 -45t44 -106q0 -59 -44 -102t-103 -43q-61 0 -104.5 43t-43.5 102zM694 1163q0 59 45 104.5t105 45.5
q61 0 105 -45t44 -105q0 -61 -44 -104t-105.5 -43t-105.5 43t-44 104zM694 829q0 61 45 106.5t105 45.5q61 0 105 -45t44 -107q0 -59 -44 -102t-105 -43q-59 0 -104.5 43t-45.5 102zM113 829q0 61 44 106.5t103 45.5q63 0 107.5 -45t44.5 -107q0 -59 -44 -102t-108 -43
q-59 0 -103 43t-44 102zM113 1163q0 59 44 104.5t103 45.5q63 0 107.5 -44t44.5 -105.5t-44 -104.5t-108 -43q-59 0 -103 43t-44 104z" />
    <glyph glyph-name="plus" unicode="+" 
d="M135 635v205h363v370h221v-370h366v-205h-366v-375h-221v375h-363z" />
    <glyph glyph-name="comma" unicode="," horiz-adv-x="516" 
d="M96 131q0 66 42 108t116 42q82 0 131 -64.5t49 -165.5q0 -129 -68.5 -221t-191.5 -127l-63 111q90 33 125 108q31 63 18 94q-12 -16 -53 -16t-73 38t-32 93z" />
    <glyph glyph-name="hyphen" unicode="-" horiz-adv-x="770" 
d="M127 451v219h516v-219h-516z" />
    <glyph glyph-name="period" unicode="." horiz-adv-x="497" 
d="M92 154q0 57 45 104t119 47q63 0 106.5 -47t43.5 -104q0 -66 -43.5 -115t-106.5 -49q-74 0 -119 49t-45 115z" />
    <glyph glyph-name="slash" unicode="/" horiz-adv-x="735" 
d="M-61 -358l675 1814l183 -67l-676 -1815z" />
    <glyph glyph-name="zero" unicode="0" horiz-adv-x="1134" 
d="M86 717q0 340 121 536.5t360 196.5q238 0 359 -196.5t121 -536.5q0 -342 -119 -537.5t-357 -195.5q-240 0 -362.5 196.5t-122.5 536.5zM338 717q0 -514 233 -514q121 0 173.5 121.5t52.5 392.5q0 268 -53.5 390t-176.5 122q-121 0 -175 -125t-54 -387z" />
    <glyph glyph-name="one" unicode="1" horiz-adv-x="796" 
d="M45 1163l367 275h170v-1438h-236v1102l-176 -133z" />
    <glyph glyph-name="two" unicode="2" horiz-adv-x="1073" 
d="M76 0v188q260 256 342 351q254 291 254 489q0 88 -47 137t-136 49q-76 0 -130 -50t-76 -142l-197 88q29 158 144.5 249t285.5 91q193 0 299.5 -110.5t106.5 -264.5q0 -113 -47.5 -234.5t-108.5 -211.5t-148.5 -184.5t-135.5 -138.5t-101 -87h596v-219h-901z" />
    <glyph glyph-name="three" unicode="3" horiz-adv-x="1085" 
d="M500 -23q-160 0 -279 64.5t-176 177.5l133 172q121 -178 307 -178q111 0 171.5 56.5t60.5 142.5q0 98 -71 150t-195 52h-103v236h92q92 0 157 54t65 143q0 80 -46.5 127t-136.5 47q-166 0 -270 -154l-131 166q119 223 424 223q186 0 298.5 -98t112.5 -266
q0 -244 -219 -340v-7q131 -23 203 -116.5t72 -225.5q0 -195 -133 -310.5t-336 -115.5z" />
    <glyph glyph-name="four" unicode="4" horiz-adv-x="1157" 
d="M686 0v332h-655v174l553 928h270l-518 -867h350v355h236v-355h184v-235h-184v-332h-236z" />
    <glyph glyph-name="five" unicode="5" horiz-adv-x="1052" 
d="M166 672l94 762h678v-236h-471l-41 -285q45 8 82 9q195 0 322.5 -125t127.5 -332q0 -225 -141 -356.5t-352 -131.5q-121 0 -238.5 54.5t-181.5 150.5l135 178q45 -66 127 -106.5t164 -40.5q102 0 169 67.5t67 174.5q0 111 -82 182.5t-224 71.5q-149 0 -235 -37z" />
    <glyph glyph-name="six" unicode="6" horiz-adv-x="1144" 
d="M92 508q0 188 65.5 357t170 287t226.5 195.5t243 108.5l96 -178q-184 -55 -326.5 -190.5t-195.5 -333.5q96 133 295 133q168 0 284.5 -123t116.5 -315q0 -215 -139.5 -343.5t-323.5 -128.5q-233 0 -372.5 154t-139.5 377zM342 506q0 -127 69.5 -210t194.5 -83
q94 0 152.5 64.5t58.5 154.5q0 102 -60.5 169t-170.5 67q-88 0 -149.5 -47t-94.5 -115z" />
    <glyph glyph-name="seven" unicode="7" horiz-adv-x="1017" 
d="M51 1198v236h901v-158l-508 -1276h-258l484 1198h-619z" />
    <glyph glyph-name="eight" unicode="8" horiz-adv-x="1228" 
d="M596 854h39q80 0 132 55.5t52 128.5q0 86 -57 134.5t-152 48.5q-92 0 -147 -51.5t-55 -131.5q0 -74 53 -129t135 -55zM635 618h-35q-94 0 -162.5 -55t-68.5 -147q0 -88 65.5 -145.5t177.5 -57.5q123 0 186.5 56.5t61.5 146.5q-2 96 -64.5 149t-160.5 53zM614 -23
q-215 0 -356 108t-141 286q0 133 68.5 229t176.5 133v6q-88 37 -146 128t-58 212q0 166 131 271.5t323 105.5q195 0 327 -105.5t132 -271.5q0 -106 -59.5 -200.5t-161.5 -137.5v-6q111 -23 185.5 -116t74.5 -228q0 -193 -140.5 -303.5t-355.5 -110.5z" />
    <glyph glyph-name="nine" unicode="9" horiz-adv-x="1136" 
d="M1044 909q0 -399 -207.5 -646t-527.5 -286l-78 187q446 90 535 500q-94 -129 -272 -129q-182 0 -307.5 126.5t-125.5 317.5q0 215 145.5 346t330.5 131q236 0 371.5 -151.5t135.5 -395.5zM795 911q0 131 -68 220.5t-190 89.5q-96 0 -161 -68t-65 -158q0 -98 65.5 -168.5
t174.5 -70.5q170 -1 244 155z" />
    <glyph glyph-name="colon" unicode=":" horiz-adv-x="651" 
d="M168 793q0 57 45 104t119 47q63 0 106 -47t43 -104q0 -66 -43 -115t-106 -49q-74 0 -119 49t-45 115zM168 154q0 57 45 104t119 47q63 0 106 -47t43 -104q0 -66 -43 -115t-106 -49q-74 0 -119 49t-45 115z" />
    <glyph glyph-name="semicolon" unicode=";" horiz-adv-x="663" 
d="M168 793q0 57 45 104t119 47q63 0 106 -47t43 -104q0 -66 -43 -115t-106 -49q-74 0 -119 49t-45 115zM170 131q0 66 42 108t116 42q82 0 131 -64.5t49 -165.5q0 -129 -68.5 -221t-191.5 -127l-64 111q90 33 125 108q31 63 19 94q-12 -16 -53.5 -16t-73 38t-31.5 93z" />
    <glyph glyph-name="less" unicode="&#x3c;" 
d="M1051 135l-951 555v101l951 550v-254l-627 -346l627 -350v-256z" />
    <glyph glyph-name="equal" unicode="=" 
d="M135 829v205h950v-205h-950zM135 440v205h950v-205h-950z" />
    <glyph glyph-name="greater" unicode="&#x3e;" 
d="M1120 690l-952 -555v256l629 350l-629 346v254l952 -550v-101z" />
    <glyph glyph-name="question" unicode="?" horiz-adv-x="968" 
d="M666 1044.5q0 73.5 -55.5 125t-137.5 51.5q-152 0 -252 -131l-139 157q57 92 164.5 150.5t240.5 58.5q199 0 315 -103.5t116 -256.5q0 -94 -31 -170t-76 -120t-95 -88t-92 -78t-64.5 -84t-12.5 -110l-215 -2q-16 100 11.5 173t80.5 118t107.5 84t94.5 95.5t40 130z
M287 154q0 57 45 104t117 47q66 0 108.5 -47t42.5 -104q0 -66 -43 -115t-108 -49q-72 0 -117 49t-45 115z" />
    <glyph glyph-name="at" unicode="@" horiz-adv-x="2039" 
d="M1227 0v74q-102 -96 -254 -97q-207 0 -330 133.5t-123 350.5q0 205 149.5 344t379.5 139q238 0 413 -110v-615h41q86 0 142.5 93.5t56.5 246.5q0 246 -181.5 415t-480.5 169t-500.5 -186.5t-201.5 -495.5q0 -295 203.5 -488.5t498.5 -193.5q117 0 222 24l10 -219
q-121 -27 -232 -26q-399 0 -661 255t-262 648q0 381 264 641t659 260q381 0 631 -222t250 -581q0 -223 -122 -387t-337 -172h-235zM1016 197q123 0 211 96v385q-94 45 -180 45q-129 0 -202 -79t-73 -193q0 -119 66.5 -186.5t177.5 -67.5z" />
    <glyph glyph-name="A" unicode="A" horiz-adv-x="1464" 
d="M14 0l607 1438h221l606 -1438h-268l-150 367h-612l-150 -367h-254zM725 1112l-211 -510h420z" />
    <glyph glyph-name="B" unicode="B" horiz-adv-x="1263" 
d="M199 2v1428q199 10 413 10q244 0 357.5 -97.5t113.5 -257.5q0 -229 -204 -325v-4q113 -29 182 -113t69 -221q0 -213 -146 -321.5t-386 -108.5q-260 0 -399 10zM629 616h-178v-378q86 -10 165 -11q262 0 263 207q0 90 -65.5 136t-184.5 46zM608 1204q-90 0 -157 -6v-362
h170q94 0 153.5 48t59.5 142q0 86 -61 132t-165 46z" />
    <glyph glyph-name="C" unicode="C" horiz-adv-x="1341" 
d="M1194 328l96 -189q-68 -72 -193.5 -117t-265.5 -45q-330 0 -534.5 203t-204.5 537q0 322 194.5 530.5t538.5 208.5q276 0 437 -145l-113 -187q-145 96 -324 97q-203 0 -335 -137.5t-132 -366.5q0 -223 138.5 -363.5t357.5 -140.5q190 0 340 115z" />
    <glyph glyph-name="D" unicode="D" horiz-adv-x="1517" 
d="M199 0v1434h26q41 0 190.5 3t205.5 3q209 0 366.5 -56.5t251.5 -157t140 -224t46 -271.5q0 -319 -214 -527t-607 -208q-37 0 -171 2t-206 2h-28zM616 1204q-80 0 -165 -6v-962q70 -4 161 -5q256 0 401.5 135.5t145.5 364.5q0 219 -144.5 346t-398.5 127z" />
    <glyph glyph-name="E" unicode="E" horiz-adv-x="1177" 
d="M199 0v1434h829v-236h-577v-356h516v-236h-516v-370h598v-236h-850z" />
    <glyph glyph-name="F" unicode="F" horiz-adv-x="1099" 
d="M199 0v1434h819v-236h-567v-405h505v-236h-505v-557h-252z" />
    <glyph glyph-name="G" unicode="G" horiz-adv-x="1488" 
d="M795 537v235h581v-594q-92 -92 -244.5 -146.5t-291.5 -54.5q-348 0 -548 201t-200 539q0 315 196.5 527t518.5 212q276 0 461 -145l-107 -201q-53 51 -141 81t-182 30q-213 0 -346.5 -134.5t-133.5 -369.5q0 -227 133.5 -365.5t352.5 -138.5q82 0 169 29.5t128 68.5v226
h-346z" />
    <glyph glyph-name="H" unicode="H" horiz-adv-x="1554" 
d="M1106 0v612h-655v-612h-252v1434h252v-586h655v586h250v-1434h-250z" />
    <glyph glyph-name="I" unicode="I" horiz-adv-x="710" 
d="M229 0v1434h252v-1434h-252z" />
    <glyph glyph-name="J" unicode="J" horiz-adv-x="798" 
d="M600 1434v-1096q0 -174 -87 -267.5t-259 -93.5q-78 0 -145.5 27t-98.5 62l82 192q59 -45 127 -45q129 0 129 168v1053h252z" />
    <glyph glyph-name="K" unicode="K" horiz-adv-x="1376" 
d="M199 0v1434h252v-680l565 680h303l-590 -668l627 -766h-320l-585 739v-739h-252z" />
    <glyph glyph-name="L" unicode="L" horiz-adv-x="1120" 
d="M199 0v1434h252v-1198h645v-236h-897z" />
    <glyph glyph-name="M" unicode="M" horiz-adv-x="1845" 
d="M199 0v1434h254l489 -670l467 670h238v-1434h-250v1036l-453 -637h-37l-456 631v-1030h-252z" />
    <glyph glyph-name="N" unicode="N" horiz-adv-x="1622" 
d="M1423 0h-200l-789 993v-993h-235v1434h200l789 -998v998h235v-1434z" />
    <glyph glyph-name="O" unicode="O" horiz-adv-x="1677" 
d="M92 717q0 315 210 527t536 212q324 0 535.5 -204.5t211.5 -534.5q0 -322 -213 -531t-534 -209q-324 0 -535 205t-211 535zM358 717q0 -215 138.5 -359.5t341.5 -144.5q221 0 351 143.5t130 360.5q0 221 -138.5 362.5t-342.5 141.5q-207 0 -343.5 -141.5t-136.5 -362.5z
" />
    <glyph glyph-name="P" unicode="P" horiz-adv-x="1253" 
d="M451 0h-252v1434q37 0 195.5 2t211.5 2q152 0 263.5 -38t173 -104.5t90 -145.5t28.5 -173q0 -195 -139 -330t-385 -135q-125 0 -186 6v-518zM631 1202q-45 0 -180 -4v-440q98 -10 178 -10q119 0 192.5 58t73.5 173q0 223 -264 223z" />
    <glyph glyph-name="Q" unicode="Q" horiz-adv-x="1677" 
d="M92 717q0 315 210 527t536 212q324 0 535.5 -204.5t211.5 -534.5q0 -305 -196 -512l176 -205h-293l-60 68q-164 -90 -374 -91q-324 0 -535 205t-211 535zM358 717q0 -215 138.5 -359.5t341.5 -144.5q115 0 215 45l-121 141l164 148l127 -150q96 135 96 320
q0 221 -138.5 362.5t-342.5 141.5q-207 0 -343.5 -141.5t-136.5 -362.5z" />
    <glyph glyph-name="R" unicode="R" horiz-adv-x="1347" 
d="M451 0h-252v1434q45 0 232 2t204 2q520 0 520 -443q0 -166 -84 -269t-192 -140l448 -586h-305l-395 537h-176v-537zM623 1202q-37 0 -172 -4v-426h163q117 0 196 58.5t79 162.5q0 209 -266 209z" />
    <glyph glyph-name="S" unicode="S" horiz-adv-x="1132" 
d="M774 381q0 57 -36 101t-93 76t-125.5 61.5t-138.5 67.5t-127 84t-93 121t-36 169q0 168 122 281.5t324 113.5q270 0 410 -153l-135 -189q-111 106 -254 107q-92 0 -146.5 -43t-54.5 -115q0 -70 48 -121t120 -81t157 -70.5t156.5 -84.5t119.5 -127t48 -196
q0 -178 -137 -292t-342 -114q-147 0 -283.5 60.5t-185.5 165.5l144 172q59 -78 150 -120t179 -42q92 0 150.5 44t58.5 124z" />
    <glyph glyph-name="T" unicode="T" horiz-adv-x="1222" 
d="M20 1198v236h1182v-236h-465v-1198h-252v1198h-465z" />
    <glyph glyph-name="U" unicode="U" horiz-adv-x="1538" 
d="M1358 1434v-840q0 -309 -162 -463t-408 -154q-276 0 -443 163t-167 468v826h252v-772q0 -209 89 -329t269 -120q319 0 320 432v789h250z" />
    <glyph glyph-name="V" unicode="V" horiz-adv-x="1343" 
d="M1348 1434l-574 -1438h-190l-590 1438h268l426 -1063l408 1063h252z" />
    <glyph glyph-name="W" unicode="W" horiz-adv-x="2017" 
d="M2007 1434l-410 -1434h-235l-346 1036l-340 -1036h-238l-428 1434h283l289 -1022l319 1022h250l328 -1024l286 1024h242z" />
    <glyph glyph-name="X" unicode="X" horiz-adv-x="1370" 
d="M1331 1434l-483 -703l502 -731h-295l-371 539l-369 -539h-295l502 731l-479 703h295l352 -519l346 519h295z" />
    <glyph glyph-name="Y" unicode="Y" horiz-adv-x="1288" 
d="M1278 1434l-510 -836v-598h-252v598l-506 836h287l356 -600l353 600h272z" />
    <glyph glyph-name="Z" unicode="Z" horiz-adv-x="1314" 
d="M123 1198v236h1089v-174l-794 -1024h815v-236h-1151v172l792 1026h-751z" />
    <glyph glyph-name="bracketleft" unicode="[" horiz-adv-x="716" 
d="M123 -410v1741h563v-221h-328v-1300h328v-220h-563z" />
    <glyph glyph-name="backslash" unicode="\" horiz-adv-x="735" 
d="M119 1456l678 -1814l-185 -68l-673 1815z" />
    <glyph glyph-name="bracketright" unicode="]" horiz-adv-x="716" 
d="M594 1331v-1741h-563v220h327v1300h-327v221h563z" />
    <glyph glyph-name="asciicircum" unicode="^" horiz-adv-x="1038" 
d="M61 922l379 528h162l375 -528h-256l-201 292l-205 -292h-254z" />
    <glyph glyph-name="underscore" unicode="_" horiz-adv-x="704" 
d="M0 -410v236h705v-236h-705z" />
    <glyph glyph-name="grave" unicode="`" horiz-adv-x="645" 
d="M383 1059l-260 293l186 139l213 -334z" />
    <glyph glyph-name="a" unicode="a" horiz-adv-x="948" 
d="M203 684l-60 172q150 88 326 88q197 0 283 -96t86 -287v-561h-205v106q-84 -119 -273 -118q-129 0 -208.5 75.5t-79.5 206.5q0 145 94 222t242 77q127 0 208 -59q4 121 -34.5 179.5t-137.5 58.5q-102 -1 -241 -64zM438 186q119 0 178 84v95q-59 45 -161 45
q-63 0 -105.5 -30t-42.5 -85q0 -51 37 -80t94 -29z" />
    <glyph glyph-name="b" unicode="b" horiz-adv-x="1122" 
d="M131 80v1354h236v-570q102 80 243 80q203 0 321 -130t118 -339q0 -227 -142.5 -362.5t-384.5 -135.5q-109 0 -216 30t-175 73zM555 723q-113 0 -188 -88v-391q74 -47 168 -47q115 0 188.5 70.5t73.5 191.5q0 127 -69 195.5t-173 68.5z" />
    <glyph glyph-name="c" unicode="c" horiz-adv-x="997" 
d="M829 309l111 -172q-57 -78 -154.5 -119t-212.5 -41q-225 0 -362 133.5t-137 350.5q0 205 135 344t342 139q246 0 371 -125l-111 -186q-92 90 -229 90q-102 0 -179 -72.5t-77 -189.5q0 -119 78.5 -191.5t187.5 -72.5q135 -1 237 112z" />
    <glyph glyph-name="d" unicode="d" horiz-adv-x="1138" 
d="M772 0v96q-106 -113 -264 -112q-197 0 -315.5 128t-118.5 339q0 217 141 355t365 138q117 0 192 -45v535h236v-1434h-236zM557 203q121 0 215 94v371q-88 55 -182 55q-111 0 -187.5 -70.5t-76.5 -193.5q0 -119 66.5 -187.5t164.5 -68.5z" />
    <glyph glyph-name="e" unicode="e" horiz-adv-x="1056" 
d="M854 258l68 -166q-135 -115 -353 -115q-223 0 -359 133.5t-136 350.5q0 207 133 345t354 138q182 0 309 -119.5t127 -308.5q0 -78 -14 -127h-666q14 -102 90 -158.5t187 -56.5q156 0 260 84zM551 748q-201 0 -242 -201h453q2 86 -55.5 143.5t-155.5 57.5z" />
    <glyph glyph-name="f" unicode="f" horiz-adv-x="665" 
d="M141 0v1071q0 188 86 286.5t242 98.5q176 0 258 -86l-80 -180q-45 45 -135 45q-135 0 -135 -182v-131h250v-222h-250v-700h-236z" />
    <glyph glyph-name="g" unicode="g" horiz-adv-x="1021" 
d="M10 -125q0 111 81 183.5t218 101.5q-16 29 -16 63q0 39 20 66q-102 41 -160.5 124t-58.5 185q0 143 108.5 244.5t284.5 101.5q133 0 236 -65l278 61l9 -188l-154 -35q23 -57 23 -119q0 -141 -108.5 -240.5t-283.5 -99.5h-16q-4 -12 -4 -35q0 -27 12 -47h10
q213 0 346.5 -75.5t133.5 -225t-133.5 -225.5t-346.5 -76q-215 0 -347 74.5t-132 226.5zM229 -125q0 -53 70 -83t190 -30q258 0 259 113q0 51 -67 82t-192 31q-123 0 -191.5 -31t-68.5 -82zM315 598q0 -66 47.5 -107.5t124.5 -41.5q76 0 124 40.5t48 108.5t-46 112t-126 44
q-78 0 -125 -45t-47 -111z" />
    <glyph glyph-name="h" unicode="h" horiz-adv-x="1118" 
d="M131 0v1434h236v-596q104 100 264 100q178 0 278.5 -97.5t100.5 -305.5v-535h-236v504q0 102 -53 157.5t-152 55.5q-119 0 -202 -84v-633h-236z" />
    <glyph glyph-name="i" unicode="i" horiz-adv-x="567" 
d="M166 0v922h235v-922h-235zM141 1253q0 61 43 99.5t105 38.5q53 0 94 -38t41 -100q0 -68 -41 -107.5t-94 -39.5q-63 0 -105.5 39.5t-42.5 107.5z" />
    <glyph glyph-name="j" unicode="j" horiz-adv-x="581" 
d="M414 922v-990q0 -358 -289 -358q-152 0 -225 66l63 186q53 -33 105 -33q111 0 110 160v969h236zM156 1253q0 61 43 99.5t104 38.5q53 0 94 -38t41 -100q0 -68 -41 -107.5t-94 -39.5q-63 0 -105 39.5t-42 107.5z" />
    <glyph glyph-name="k" unicode="k" horiz-adv-x="1052" 
d="M997 922l-346 -422l387 -500h-303l-364 481l329 441h297zM131 0v1434h236v-1434h-236z" />
    <glyph glyph-name="l" unicode="l" horiz-adv-x="612" 
d="M131 254v1180h236v-1084q0 -150 79 -149q45 0 97 37l49 -181q-96 -78 -244 -77q-217 0 -217 274z" />
    <glyph glyph-name="m" unicode="m" horiz-adv-x="1638" 
d="M1530 602v-602h-236v541q0 176 -157 176q-135 0 -191 -107q0 -6 1 -31.5t1 -35.5v-543h-235v557q0 74 -40 117t-114 43q-127 0 -192 -99v-618h-236v922h236v-103q106 119 288 119q102 0 172 -41t97 -106q113 147 311 147q295 0 295 -336z" />
    <glyph glyph-name="n" unicode="n" horiz-adv-x="1118" 
d="M131 0v922h236v-93q100 109 264 109q379 0 379 -397v-541h-236v500q0 217 -207 217q-113 0 -200 -88v-629h-236z" />
    <glyph glyph-name="o" unicode="o" horiz-adv-x="1150" 
d="M74 461q0 211 138 347t363.5 136t363.5 -136t138 -347t-138 -347.5t-363.5 -136.5t-363.5 136.5t-138 347.5zM326 461q0 -115 70.5 -189.5t178.5 -74.5q111 0 181.5 72.5t70.5 191.5q0 115 -71.5 188.5t-180.5 73.5q-106 0 -177.5 -72.5t-71.5 -189.5z" />
    <glyph glyph-name="p" unicode="p" horiz-adv-x="1142" 
d="M131 -410v1332h236v-88q45 47 121.5 78.5t162.5 31.5q188 0 303 -131t115 -338q0 -215 -135 -356.5t-352 -141.5q-137 0 -215 46v-433h-236zM578 723q-121 0 -211 -100v-373q82 -53 194 -53q119 0 188.5 76.5t69.5 195.5q0 113 -63 183.5t-178 70.5z" />
    <glyph glyph-name="q" unicode="q" horiz-adv-x="1144" 
d="M780 -410v457q-109 -70 -227 -70q-219 0 -349 132.5t-130 351.5q0 205 149.5 344t378.5 139q238 0 414 -110v-1244h-236zM584 197q119 0 196 84v397q-94 45 -180 45q-129 0 -201.5 -79t-72.5 -193q0 -111 70.5 -182.5t187.5 -71.5z" />
    <glyph glyph-name="r" unicode="r" horiz-adv-x="724" 
d="M131 0v922h236v-91q78 106 211 107q96 0 143 -35l-84 -221q-59 35 -119 35q-102 0 -151 -99v-618h-236z" />
    <glyph glyph-name="s" unicode="s" horiz-adv-x="909" 
d="M598 260q0 41 -51 66.5t-125 45t-146.5 47t-124 89t-51.5 156.5q0 131 95.5 205.5t242.5 74.5q225 0 350 -117l-88 -168q-113 88 -249 89q-51 0 -83 -24t-32 -56q0 -35 37 -60.5t92 -38t119.5 -35t120 -49t92.5 -82t37 -131.5q0 -135 -101.5 -215t-271.5 -80
q-119 0 -234.5 51.5t-150.5 106.5l114 154q41 -45 129.5 -80t157.5 -35q53 0 87 22.5t34 63.5z" />
    <glyph glyph-name="t" unicode="t" horiz-adv-x="737" 
d="M111 350v828h235v-256h297v-222h-297v-335q0 -166 111 -166q70 0 141 53l72 -182q-111 -90 -273 -90q-152 0 -219 93t-67 277z" />
    <glyph glyph-name="u" unicode="u" horiz-adv-x="1095" 
d="M965 922v-922h-236v113q-111 -135 -295 -136q-143 0 -233 96.5t-90 284.5v564h235v-514q0 -211 176 -211q121 0 207 112v613h236z" />
    <glyph glyph-name="v" unicode="v" horiz-adv-x="985" 
d="M989 922l-397 -926h-174l-424 926h280l170 -396q45 -100 70 -209q27 115 68 213l159 392h248z" />
    <glyph glyph-name="w" unicode="w" horiz-adv-x="1476" 
d="M1466 922l-290 -926h-211l-197 512q-8 20 -18.5 61t-12.5 47q-12 -59 -32 -112l-195 -508h-201l-299 926h252l148 -502q8 -25 26 -123q27 96 35 123l172 502h209l178 -500q14 -41 35 -127q8 43 29 133l135 494h237z" />
    <glyph glyph-name="x" unicode="x" horiz-adv-x="1069" 
d="M1012 922l-307 -441l327 -481h-287l-215 332l-223 -332h-272l327 469l-307 453h289l195 -306l200 306h273z" />
    <glyph glyph-name="y" unicode="y" horiz-adv-x="1030" 
d="M1020 922l-363 -922q-98 -240 -174.5 -325t-181.5 -85q-100 0 -199 72l76 178q55 -33 96 -33q84 0 142 144l20 49l-426 922h283l215 -504q12 -29 45 -133q16 90 33 135l166 502h268z" />
    <glyph glyph-name="z" unicode="z" horiz-adv-x="1003" 
d="M117 700v222h798v-170l-499 -533h489v-219h-819v170l500 530h-469z" />
    <glyph glyph-name="braceleft" unicode="{" horiz-adv-x="741" 
d="M225 -111v269q0 111 -55 156.5t-129 43.5v205q72 0 128 51.5t56 173.5v230q0 162 74 237.5t248 75.5h153v-221h-94q-82 0 -113.5 -37t-31.5 -137v-240q0 -98 -42 -160.5t-112 -72.5q154 -18 154 -234v-243q0 -94 35.5 -135t121.5 -41h82v-220h-168q-154 0 -230.5 69.5
t-76.5 229.5z" />
    <glyph glyph-name="bar" unicode="|" horiz-adv-x="696" 
d="M229 0v1434h236v-1434h-236z" />
    <glyph glyph-name="braceright" unicode="}" horiz-adv-x="741" 
d="M516 158v-269q0 -160 -77 -229.5t-228 -69.5h-170v220h82q86 0 122 40.5t36 135.5v243q0 215 153 234q-70 10 -111.5 72.5t-41.5 160.5v240q0 100 -32 137t-114 37h-94v221h154q176 0 248.5 -75.5t72.5 -237.5v-230q0 -123 56.5 -174t127.5 -51v-205q-74 2 -129 -43.5
t-55 -156.5z" />
    <glyph glyph-name="asciitilde" unicode="~" 
d="M188 590l-102 151q143 164 299 164q86 0 241.5 -69.5t235.5 -69.5q98 0 180 92l93 -162q-143 -135 -275 -135q-84 0 -237.5 69.5t-223.5 69.5q-100 1 -211 -110z" />
    <glyph glyph-name="uni00A0" unicode="&#xa0;" horiz-adv-x="434" 
 />
    <glyph glyph-name="section" unicode="&#xa7;" horiz-adv-x="1073" 
d="M117 510q0 123 65.5 218t184.5 136q-147 94 -148 277q0 123 93.5 208t256.5 85q184 0 295 -144l-141 -157q-72 80 -145 79q-49 0 -86 -34.5t-37 -83.5q0 -121 147 -207q168 -18 260 -123t92 -254q0 -125 -64.5 -219t-182.5 -135q141 -96 141 -273q0 -125 -92 -209
t-258 -84q-182 0 -293 144l141 157q74 -82 143 -81q51 0 87 35.5t36 84.5q0 121 -145 203q-166 18 -258 122.5t-92 254.5zM352 510q0 -70 49.5 -123t135.5 -53q88 0 135 52t47 124q0 70 -48 123t-134 53q-84 0 -134.5 -53t-50.5 -123z" />
    <glyph glyph-name="copyright" unicode="&#xa9;" horiz-adv-x="2084" 
d="M147 453q0 375 258.5 634t637 259t635.5 -258.5t257 -635t-257 -635.5t-635.5 -259t-637 259t-258.5 636zM352 451q0 -287 198 -488t494 -201q293 0 490 201t197 488q0 289 -197 489.5t-490 200.5q-297 0 -494.5 -200.5t-197.5 -489.5zM1313 309l110 -172
q-57 -78 -154.5 -119t-211.5 -41q-225 0 -362.5 133.5t-137.5 350.5q0 205 135 344t342 139q246 0 371 -125l-111 -186q-92 90 -229 90q-102 0 -179 -72.5t-77 -189.5q0 -119 79 -191.5t187 -72.5q136 -1 238 112z" />
    <glyph glyph-name="guillemotleft" unicode="&#xab;" horiz-adv-x="1148" 
d="M901 45l-395 463v8l403 463l154 -137l-285 -330l283 -334zM471 45l-395 463v8l403 463l154 -137l-285 -330l283 -334z" />
    <glyph glyph-name="uni00AD" unicode="&#xad;" horiz-adv-x="770" 
d="M127 451v219h516v-219h-516z" />
    <glyph glyph-name="registered" unicode="&#xae;" horiz-adv-x="1357" 
d="M92 1018q0 244 171 414t419 170q242 0 413 -171t171 -413q0 -246 -171 -418t-413 -172q-248 0 -419 171t-171 419zM281 1016q0 -164 116.5 -281t280.5 -117t280.5 117t116.5 281t-116.5 280.5t-280.5 116.5t-280.5 -116.5t-116.5 -280.5zM610 737h-157v574h239
q119 0 176.5 -51.5t57.5 -139.5q0 -59 -32 -104t-77 -62l119 -217h-182l-88 181h-56v-181zM670 1198h-60v-168h60q45 0 70.5 25.5t25.5 62.5q0 80 -96 80z" />
    <glyph glyph-name="guillemotright" unicode="&#xbb;" horiz-adv-x="1148" 
d="M1073 508l-395 -463l-160 133l283 334l-285 330l154 137l403 -463v-8zM643 508l-395 -463l-160 133l283 334l-285 330l154 137l403 -463v-8z" />
    <glyph glyph-name="afii10023" unicode="&#x401;" horiz-adv-x="1177" 
d="M199 0v1434h829v-236h-577v-356h516v-236h-516v-370h598v-236h-850zM244 1690q0 57 45 92t112 35q59 0 102.5 -35t43.5 -92q0 -63 -43 -99.5t-103 -36.5q-68 0 -112.5 36.5t-44.5 99.5zM719 1690q0 57 45 92t113 35q59 0 102 -35t43 -92q0 -63 -43 -99.5t-102 -36.5
q-68 0 -113 36.5t-45 99.5z" />
    <glyph glyph-name="afii10017" unicode="&#x410;" horiz-adv-x="1464" 
d="M14 0l607 1438h221l606 -1438h-268l-150 367h-612l-150 -367h-254zM725 1112l-211 -510h420z" />
    <glyph glyph-name="afii10018" unicode="&#x411;" horiz-adv-x="1257" 
d="M199 0v1434h837v-236h-585v-319q82 12 192 12q223 0 352 -117t129 -315q0 -223 -144 -345t-409 -122q-92 0 -216.5 4t-155.5 4zM623 655q-78 0 -172 -12v-407q115 -8 159 -9q264 0 264 213q0 98 -62 156.5t-189 58.5z" />
    <glyph glyph-name="afii10019" unicode="&#x412;" horiz-adv-x="1263" 
d="M199 2v1428q199 10 413 10q244 0 357.5 -97.5t113.5 -257.5q0 -229 -204 -325v-4q113 -29 182 -113t69 -221q0 -213 -146 -321.5t-386 -108.5q-260 0 -399 10zM629 616h-178v-378q86 -10 165 -11q262 0 263 207q0 90 -65.5 136t-184.5 46zM608 1204q-90 0 -157 -6v-362
h170q94 0 153.5 48t59.5 142q0 86 -61 132t-165 46z" />
    <glyph glyph-name="afii10020" unicode="&#x413;" horiz-adv-x="1038" 
d="M199 0v1434h809v-236h-557v-1198h-252z" />
    <glyph glyph-name="afii10021" unicode="&#x414;" horiz-adv-x="1548" 
d="M25 -256v492h153q63 78 134 318.5t87 592.5l15 287h889v-1198h194v-492h-235v256h-1002v-256h-235zM635 948q-18 -252 -75.5 -452.5t-104.5 -259.5h598v962h-396z" />
    <glyph glyph-name="afii10022" unicode="&#x415;" horiz-adv-x="1177" 
d="M199 0v1434h829v-236h-577v-356h516v-236h-516v-370h598v-236h-850z" />
    <glyph glyph-name="afii10024" unicode="&#x416;" horiz-adv-x="1953" 
d="M582 748l-539 686h289l520 -684v684h250v-684l518 684h291l-539 -684l561 -750h-291l-540 743v-743h-250v743l-543 -743h-289z" />
    <glyph glyph-name="afii10025" unicode="&#x417;" horiz-adv-x="1198" 
d="M563 -23q-174 0 -300 71t-191 171l137 170q68 -78 162 -127t180 -49q113 0 188.5 54.5t75.5 158.5q0 86 -65.5 137t-188.5 51h-147v236h139q84 0 145.5 51t61.5 137q0 88 -57.5 135.5t-151.5 47.5q-174 0 -291 -156l-145 168q72 100 196.5 161.5t268.5 61.5
q195 0 312.5 -103.5t117.5 -289.5q0 -88 -49.5 -174t-143.5 -141v-7q125 -31 186.5 -121t61.5 -219q0 -190 -148.5 -307t-353.5 -117z" />
    <glyph glyph-name="afii10026" unicode="&#x418;" horiz-adv-x="1622" 
d="M420 0h-221v1434h252v-1020l751 1020h221v-1434h-252v1018z" />
    <glyph glyph-name="afii10027" unicode="&#x419;" horiz-adv-x="1622" 
d="M420 0h-221v1434h252v-1020l751 1020h221v-1434h-252v1018zM426 1782h236q25 -119 174 -119q154 0 163 119h236q-4 -131 -116.5 -212t-282.5 -81q-182 0 -291 80t-119 213z" />
    <glyph glyph-name="afii10028" unicode="&#x41a;" horiz-adv-x="1376" 
d="M199 0v1434h252v-680l565 680h303l-590 -668l627 -766h-320l-585 739v-739h-252z" />
    <glyph glyph-name="afii10029" unicode="&#x41b;" horiz-adv-x="1492" 
d="M1044 0v1198h-417l-29 -270q-25 -246 -63.5 -420t-86 -278.5t-112 -160t-133 -68.5t-158.5 -1l6 250q41 -6 71 3t70.5 58t70.5 141.5t59.5 269.5t48.5 425l20 287h903v-1434h-250z" />
    <glyph glyph-name="afii10030" unicode="&#x41c;" horiz-adv-x="1845" 
d="M199 0v1434h254l489 -670l467 670h238v-1434h-250v1036l-453 -637h-37l-456 631v-1030h-252z" />
    <glyph glyph-name="afii10031" unicode="&#x41d;" horiz-adv-x="1554" 
d="M1106 0v612h-655v-612h-252v1434h252v-586h655v586h250v-1434h-250z" />
    <glyph glyph-name="afii10032" unicode="&#x41e;" horiz-adv-x="1677" 
d="M92 717q0 315 210 527t536 212q324 0 535.5 -204.5t211.5 -534.5q0 -322 -213 -531t-534 -209q-324 0 -535 205t-211 535zM358 717q0 -215 138.5 -359.5t341.5 -144.5q221 0 351 143.5t130 360.5q0 221 -138.5 362.5t-342.5 141.5q-207 0 -343.5 -141.5t-136.5 -362.5z
" />
    <glyph glyph-name="afii10033" unicode="&#x41f;" horiz-adv-x="1540" 
d="M1090 0v1198h-639v-1198h-252v1434h1142v-1434h-251z" />
    <glyph glyph-name="afii10034" unicode="&#x420;" horiz-adv-x="1253" 
d="M451 0h-252v1434q37 0 195.5 2t211.5 2q152 0 263.5 -38t173 -104.5t90 -145.5t28.5 -173q0 -195 -139 -330t-385 -135q-125 0 -186 6v-518zM631 1202q-45 0 -180 -4v-440q98 -10 178 -10q119 0 192.5 58t73.5 173q0 223 -264 223z" />
    <glyph glyph-name="afii10035" unicode="&#x421;" horiz-adv-x="1341" 
d="M1194 328l96 -189q-68 -72 -193.5 -117t-265.5 -45q-330 0 -534.5 203t-204.5 537q0 322 194.5 530.5t538.5 208.5q276 0 437 -145l-113 -187q-145 96 -324 97q-203 0 -335 -137.5t-132 -366.5q0 -223 138.5 -363.5t357.5 -140.5q190 0 340 115z" />
    <glyph glyph-name="afii10036" unicode="&#x422;" horiz-adv-x="1222" 
d="M20 1198v236h1182v-236h-465v-1198h-252v1198h-465z" />
    <glyph glyph-name="afii10037" unicode="&#x423;" horiz-adv-x="1398" 
d="M1374 1434l-487 -1100q-76 -170 -168 -252t-221 -82q-125 0 -197 57l88 213q51 -35 107 -34q94 0 141 100l20 49l-632 1049h284l469 -801l342 801h254z" />
    <glyph glyph-name="afii10038" unicode="&#x424;" horiz-adv-x="1718" 
d="M733 -16v190q-301 0 -481 148.5t-180 414.5q0 264 180 411.5t481 151.5v150h252v-150q299 -4 480.5 -153.5t181.5 -409.5q0 -264 -181.5 -412.5t-480.5 -150.5v-190h-252zM1380 737q0 150 -100 240t-295 92v-663q395 3 395 331zM338 737q0 -160 102.5 -244.5t292.5 -86.5
v663q-193 -2 -294 -92t-101 -240z" />
    <glyph glyph-name="afii10039" unicode="&#x425;" horiz-adv-x="1370" 
d="M1331 1434l-483 -703l502 -731h-295l-371 539l-369 -539h-295l502 731l-479 703h295l352 -519l346 519h295z" />
    <glyph glyph-name="afii10040" unicode="&#x426;" horiz-adv-x="1576" 
d="M199 0v1434h252v-1198h628v1198h252v-1198h195v-492h-236v256h-1091z" />
    <glyph glyph-name="afii10041" unicode="&#x427;" horiz-adv-x="1366" 
d="M1167 1434v-1434h-252v588q-135 -98 -342 -99q-184 0 -310 111t-126 348v486h252v-414q0 -295 252 -295q139 0 274 92v617h252z" />
    <glyph glyph-name="afii10042" unicode="&#x428;" horiz-adv-x="2041" 
d="M199 0v1434h252v-1198h444v1198h252v-1198h444v1198h252v-1434h-1644z" />
    <glyph glyph-name="afii10043" unicode="&#x429;" horiz-adv-x="2088" 
d="M199 0v1434h252v-1198h444v1198h252v-1198h444v1198h252v-1198h195v-492h-236v256h-1603z" />
    <glyph glyph-name="afii10044" unicode="&#x42a;" horiz-adv-x="1378" 
d="M14 1198v236h566v-492q82 10 165 10q270 0 405.5 -122.5t135.5 -340.5q0 -229 -155.5 -361t-440.5 -132q-74 0 -199.5 2t-160.5 2v1198h-316zM725 717q-49 0 -145 -10v-469q16 0 43.5 -2.5t51 -3.5t46.5 -1q299 0 299 252q0 117 -79 175.5t-216 58.5z" />
    <glyph glyph-name="afii10045" unicode="&#x42b;" horiz-adv-x="1769" 
d="M1321 0v1434h250v-1434h-250zM590 717q-43 0 -139 -10v-469q14 0 40.5 -2.5t49 -3.5t45.5 -1q283 0 282 252q0 115 -72.5 174.5t-205.5 59.5zM451 1434v-492q80 10 159 10q260 0 392.5 -122.5t132.5 -340.5q0 -229 -154 -361t-426 -132q-74 0 -198 2t-158 2v1434h252z
" />
    <glyph glyph-name="afii10046" unicode="&#x42c;" horiz-adv-x="1247" 
d="M594 717q-47 0 -143 -10v-469q135 -6 139 -7q299 0 299 252q0 117 -79 175.5t-216 58.5zM451 1434v-492q80 10 163 10q270 0 405.5 -122.5t135.5 -340.5q0 -229 -155.5 -361t-438.5 -132q-76 0 -202 2t-160 2v1434h252z" />
    <glyph glyph-name="afii10047" unicode="&#x42d;" horiz-adv-x="1378" 
d="M383 612v236h639q-37 178 -174 275.5t-342 97.5q-188 0 -336 -111l-98 188q184 158 493 158q319 0 520 -202.5t201 -534.5q0 -338 -202.5 -540t-546.5 -202q-145 0 -274.5 42t-207.5 108l109 211q162 -125 368 -125q193 0 329 103.5t167 295.5h-645z" />
    <glyph glyph-name="afii10048" unicode="&#x42e;" horiz-adv-x="2213" 
d="M199 0v1434h252v-586h243q41 268 230.5 438t470.5 170q322 0 524.5 -203.5t202.5 -535.5q0 -324 -204 -532t-523 -208q-276 0 -474 174.5t-231 460.5h-239v-612h-252zM950 717q0 -213 131 -358.5t322 -145.5q217 0 334.5 141.5t117.5 362.5q0 223 -124.5 363.5
t-327.5 140.5q-195 0 -324 -141.5t-129 -362.5z" />
    <glyph glyph-name="afii10049" unicode="&#x42f;" horiz-adv-x="1294" 
d="M846 0v496h-207l-322 -496h-282l366 547q-111 55 -181 156.5t-70 240.5q0 215 147 355.5t442 140.5q47 0 181.5 -3t175.5 -3v-1434h-250zM616 731h230v467q-104 6 -158 6q-123 0 -197.5 -67.5t-74.5 -175.5q0 -92 58 -153t142 -77z" />
    <glyph glyph-name="afii10065" unicode="&#x430;" horiz-adv-x="948" 
d="M203 684l-60 172q150 88 326 88q197 0 283 -96t86 -287v-561h-205v106q-84 -119 -273 -118q-129 0 -208.5 75.5t-79.5 206.5q0 145 94 222t242 77q127 0 208 -59q4 121 -34.5 179.5t-137.5 58.5q-102 -1 -241 -64zM438 186q119 0 178 84v95q-59 45 -161 45
q-63 0 -105.5 -30t-42.5 -85q0 -51 37 -80t94 -29z" />
    <glyph glyph-name="afii10066" unicode="&#x431;" horiz-adv-x="1122" 
d="M823 1456l123 -192q-53 -63 -122.5 -89t-163 -45.5t-160.5 -52.5q-172 -80 -199 -344h4q43 76 133 124t191 48q190 0 305 -123t115 -329q0 -199 -135.5 -337.5t-348.5 -138.5q-231 0 -365 158t-134 426q0 592 348 742q78 33 168 50t144 35.5t97 67.5zM317 512
q2 -137 68 -226t174.5 -89t173 70.5t64.5 174.5q0 106 -59.5 175t-168.5 69q-94 0 -160.5 -49t-91.5 -125z" />
    <glyph glyph-name="afii10067" unicode="&#x432;" horiz-adv-x="1028" 
d="M131 0v922q25 0 91.5 3t137 5t134.5 2q418 0 417 -242q0 -80 -50 -137t-122 -68v-4q197 -47 197 -213q0 -279 -438 -278q-61 0 -194.5 5t-172.5 5zM514 391h-147v-205q139 -8 155 -8q78 0 122 29t44 78q0 106 -174 106zM514 741q-98 0 -147 -4v-202h153q61 0 101.5 27.5
t40.5 78.5q-1 100 -148 100z" />
    <glyph glyph-name="afii10068" unicode="&#x433;" horiz-adv-x="765" 
d="M131 0v922h619v-222h-383v-700h-236z" />
    <glyph glyph-name="afii10069" unicode="&#x434;" horiz-adv-x="1138" 
d="M20 -215v434h117q109 143 129 481l15 222h680v-703h153v-434h-221v215h-653v-215h-220zM494 606q-25 -268 -111 -387h342v481h-225z" />
    <glyph glyph-name="afii10070" unicode="&#x435;" horiz-adv-x="1056" 
d="M854 258l68 -166q-135 -115 -353 -115q-223 0 -359 133.5t-136 350.5q0 207 133 345t354 138q182 0 309 -119.5t127 -308.5q0 -78 -14 -127h-666q14 -102 90 -158.5t187 -56.5q156 0 260 84zM551 748q-201 0 -242 -201h453q2 86 -55.5 143.5t-155.5 57.5z" />
    <glyph glyph-name="afii10072" unicode="&#x436;" horiz-adv-x="1452" 
d="M1411 922l-305 -447l330 -475h-279l-307 475l283 447h278zM604 0v922h236v-922h-236zM340 475l-307 447h286l275 -447l-299 -475h-281z" />
    <glyph glyph-name="afii10073" unicode="&#x437;" horiz-adv-x="966" 
d="M457 -23q-121 0 -236 44.5t-166 109.5l121 148q41 -47 118 -80t142 -33q90 0 139.5 30.5t49.5 82.5q0 47 -37 75.5t-103 28.5h-172v158h162q55 0 89 32.5t34 79.5q0 100 -162 101q-127 0 -252 -107l-98 141q133 156 395 156q180 0 274.5 -69.5t94.5 -192.5
q0 -68 -45 -123t-125 -82v-4q94 -18 144 -76.5t50 -140.5q0 -129 -114.5 -204t-302.5 -75z" />
    <glyph glyph-name="afii10074" unicode="&#x438;" horiz-adv-x="1163" 
d="M367 0h-236v922h236v-584l430 584h235v-922h-235v584z" />
    <glyph glyph-name="afii10075" unicode="&#x439;" horiz-adv-x="1163" 
d="M367 0h-236v922h236v-584l430 584h235v-922h-235v584zM268 1382h215q0 -63 26 -106t81 -43q49 0 73.5 43t24.5 106h215q0 -139 -82 -228t-231 -89q-164 0 -243 87t-79 230z" />
    <glyph glyph-name="afii10076" unicode="&#x43a;" horiz-adv-x="1054" 
d="M1004 922l-355 -439l398 -483h-308l-364 465l332 457h297zM131 0v922h236v-922h-236z" />
    <glyph glyph-name="afii10077" unicode="&#x43b;" horiz-adv-x="1103" 
d="M737 0v686h-243l-7 -98q-23 -248 -75 -381t-130.5 -179t-209.5 -46l-21 229q45 -4 85 25.5t77 131t47 267.5l14 287h699v-922h-236z" />
    <glyph glyph-name="afii10078" unicode="&#x43c;" horiz-adv-x="1292" 
d="M131 0v922h213l313 -385l297 385h207v-922h-235v563l-273 -344h-6l-280 344v-563h-236z" />
    <glyph glyph-name="afii10079" unicode="&#x43d;" horiz-adv-x="1136" 
d="M770 0v352h-403v-352h-236v922h236v-349h403v349h236v-922h-236z" />
    <glyph glyph-name="afii10080" unicode="&#x43e;" horiz-adv-x="1150" 
d="M74 461q0 211 138 347t363.5 136t363.5 -136t138 -347t-138 -347.5t-363.5 -136.5t-363.5 136.5t-138 347.5zM326 461q0 -115 70.5 -189.5t178.5 -74.5q111 0 181.5 72.5t70.5 191.5q0 115 -71.5 188.5t-180.5 73.5q-106 0 -177.5 -72.5t-71.5 -189.5z" />
    <glyph glyph-name="afii10081" unicode="&#x43f;" horiz-adv-x="1126" 
d="M760 0v700h-393v-700h-236v922h864v-922h-235z" />
    <glyph glyph-name="afii10082" unicode="&#x440;" horiz-adv-x="1142" 
d="M131 -410v1332h236v-88q45 47 121.5 78.5t162.5 31.5q188 0 303 -131t115 -338q0 -215 -135 -356.5t-352 -141.5q-137 0 -215 46v-433h-236zM578 723q-121 0 -211 -100v-373q82 -53 194 -53q119 0 188.5 76.5t69.5 195.5q0 113 -63 183.5t-178 70.5z" />
    <glyph glyph-name="afii10083" unicode="&#x441;" horiz-adv-x="997" 
d="M829 309l111 -172q-57 -78 -154.5 -119t-212.5 -41q-225 0 -362 133.5t-137 350.5q0 205 135 344t342 139q246 0 371 -125l-111 -186q-92 90 -229 90q-102 0 -179 -72.5t-77 -189.5q0 -119 78.5 -191.5t187.5 -72.5q135 -1 237 112z" />
    <glyph glyph-name="afii10084" unicode="&#x442;" horiz-adv-x="911" 
d="M35 686v236h839v-236h-301v-686h-235v686h-303z" />
    <glyph glyph-name="afii10085" unicode="&#x443;" horiz-adv-x="1030" 
d="M1020 922l-363 -922q-98 -240 -174.5 -325t-181.5 -85q-100 0 -199 72l76 178q55 -33 96 -33q84 0 142 144l20 49l-426 922h283l215 -504q12 -29 45 -133q16 90 33 135l166 502h268z" />
    <glyph glyph-name="afii10086" unicode="&#x444;" horiz-adv-x="1406" 
d="M586 -410v387h-13q-236 0 -367.5 135.5t-131.5 348.5q0 199 134 341t363 142h15v490h235v-490h17q231 0 363 -136t132 -347q0 -215 -127 -349.5t-368 -134.5h-17v-387h-235zM838 723h-17v-526h8q123 0 187.5 71.5t64.5 192.5q0 111 -62 186.5t-181 75.5zM326 461
q0 -119 65.5 -191.5t188.5 -72.5h6v526h-17q-123 0 -183 -73.5t-60 -188.5z" />
    <glyph glyph-name="afii10087" unicode="&#x445;" horiz-adv-x="1069" 
d="M1012 922l-307 -441l327 -481h-287l-215 332l-223 -332h-272l327 469l-307 453h289l195 -306l200 306h273z" />
    <glyph glyph-name="afii10088" unicode="&#x446;" horiz-adv-x="1159" 
d="M131 0v922h236v-703h378v703h236v-703h154v-434h-222v215h-782z" />
    <glyph glyph-name="afii10089" unicode="&#x447;" horiz-adv-x="1005" 
d="M874 922v-922h-235v317q-100 -53 -229 -53q-174 0 -254 91t-80 272v295h252v-267q0 -170 149 -170q98 0 162 37v400h235z" />
    <glyph glyph-name="afii10090" unicode="&#x448;" horiz-adv-x="1490" 
d="M131 0v922h236v-703h260v703h235v-703h262v703h236v-922h-1229z" />
    <glyph glyph-name="afii10091" unicode="&#x449;" horiz-adv-x="1538" 
d="M131 0v922h236v-703h260v703h235v-703h262v703h236v-703h153v-434h-221v215h-1161z" />
    <glyph glyph-name="afii10092" unicode="&#x44a;" horiz-adv-x="1097" 
d="M31 700v222h475v-252h129q217 0 311 -90.5t94 -229.5q0 -150 -102 -250t-322 -100h-346v700h-239zM614 481h-108v-276h106q176 0 176 137q0 139 -174 139z" />
    <glyph glyph-name="afii10093" unicode="&#x44b;" horiz-adv-x="1384" 
d="M131 0v922h236v-252h114q217 0 311.5 -90.5t94.5 -229.5q0 -150 -102.5 -250t-321.5 -100h-332zM1018 0v922h235v-922h-235zM461 481h-94v-276h92q178 0 178 137q0 139 -176 139z" />
    <glyph glyph-name="afii10094" unicode="&#x44c;" horiz-adv-x="956" 
d="M131 0v922h236v-252h127q217 0 311 -90.5t94 -229.5q0 -150 -102.5 -250t-321.5 -100h-344zM473 481h-106v-276h104q178 0 178 137q0 139 -176 139z" />
    <glyph glyph-name="afii10095" unicode="&#x44d;" horiz-adv-x="1015" 
d="M287 387v158h409q-23 96 -94.5 145t-169.5 49q-133 0 -264 -96l-96 164q61 68 161.5 102.5t194.5 34.5q236 0 375 -131t139 -352q0 -209 -132 -346.5t-359 -137.5q-250 0 -383 138l110 155q100 -88 258 -88q106 0 175 52.5t87 152.5h-411z" />
    <glyph glyph-name="afii10096" unicode="&#x44e;" horiz-adv-x="1581" 
d="M131 0v922h250v-334h164q37 162 160.5 259t306.5 97q221 0 358 -136t137 -347q0 -209 -138 -346.5t-357 -137.5q-188 0 -313.5 102.5t-157.5 272.5h-160v-352h-250zM797 461q0 -115 61.5 -181.5t159.5 -66.5q100 0 161.5 66.5t61.5 181t-60.5 181.5t-162.5 67
q-98 0 -159.5 -67.5t-61.5 -180.5z" />
    <glyph glyph-name="afii10097" unicode="&#x44f;" horiz-adv-x="1013" 
d="M582 922h301v-922h-236v276h-131l-190 -276h-271l246 328q-70 25 -124 93t-54 173q0 145 111.5 236.5t347.5 91.5zM375 578q0 -55 46 -91t103 -36h123v266h-104q-80 0 -124 -41t-44 -98z" />
    <glyph glyph-name="afii10071" unicode="&#x451;" horiz-adv-x="1056" 
d="M854 258l68 -166q-135 -115 -353 -115q-223 0 -359 133.5t-136 350.5q0 207 133 345t354 138q182 0 309 -119.5t127 -308.5q0 -78 -14 -127h-666q14 -102 90 -158.5t187 -56.5q156 0 260 84zM551 748q-201 0 -242 -201h453q2 86 -55.5 143.5t-155.5 57.5zM223 1227
q0 59 39 95t94 36q49 0 86 -36t37 -95q0 -63 -36.5 -100t-86.5 -37q-55 0 -94 37t-39 100zM631 1227q0 59 38 95t93 36q49 0 86 -36t37 -95q0 -63 -36 -100t-87 -37q-55 0 -93 37t-38 100z" />
    <glyph glyph-name="uni2000" unicode="&#x2000;" horiz-adv-x="908" 
 />
    <glyph glyph-name="uni2001" unicode="&#x2001;" horiz-adv-x="1817" 
 />
    <glyph glyph-name="uni2002" unicode="&#x2002;" horiz-adv-x="908" 
 />
    <glyph glyph-name="uni2003" unicode="&#x2003;" horiz-adv-x="1817" 
 />
    <glyph glyph-name="uni2004" unicode="&#x2004;" horiz-adv-x="605" 
 />
    <glyph glyph-name="uni2005" unicode="&#x2005;" horiz-adv-x="454" 
 />
    <glyph glyph-name="uni2006" unicode="&#x2006;" horiz-adv-x="302" 
 />
    <glyph glyph-name="uni2007" unicode="&#x2007;" horiz-adv-x="302" 
 />
    <glyph glyph-name="uni2008" unicode="&#x2008;" horiz-adv-x="227" 
 />
    <glyph glyph-name="uni2009" unicode="&#x2009;" horiz-adv-x="363" 
 />
    <glyph glyph-name="uni200A" unicode="&#x200a;" horiz-adv-x="100" 
 />
    <glyph glyph-name="uni2010" unicode="&#x2010;" horiz-adv-x="770" 
d="M127 451v219h516v-219h-516z" />
    <glyph glyph-name="uni2011" unicode="&#x2011;" horiz-adv-x="770" 
d="M127 451v219h516v-219h-516z" />
    <glyph glyph-name="figuredash" unicode="&#x2012;" horiz-adv-x="770" 
d="M127 451v219h516v-219h-516z" />
    <glyph glyph-name="endash" unicode="&#x2013;" horiz-adv-x="1226" 
d="M174 451v204h879v-204h-879z" />
    <glyph glyph-name="emdash" unicode="&#x2014;" horiz-adv-x="1667" 
d="M174 451v204h1319v-204h-1319z" />
    <glyph glyph-name="quoteleft" unicode="&#x2018;" horiz-adv-x="493" 
d="M365 1126l-199 -114q-70 74 -70 190q0 129 61.5 216t143.5 136l109 -100q-92 -76 -93 -201q1 -80 48 -127z" />
    <glyph glyph-name="quoteright" unicode="&#x2019;" horiz-adv-x="493" 
d="M129 1430l199 116q70 -74 69 -190q0 -129 -61.5 -218t-142.5 -134l-109 100q92 76 92 199q0 80 -47 127z" />
    <glyph glyph-name="quotedblleft" unicode="&#x201c;" horiz-adv-x="827" 
d="M696 1126l-198 -114q-70 74 -70 190q0 129 61.5 216t143.5 136l108 -100q-92 -76 -92 -201q0 -80 47 -127zM365 1126l-199 -114q-70 74 -70 190q0 129 61.5 216t143.5 136l109 -100q-92 -76 -93 -201q1 -80 48 -127z" />
    <glyph glyph-name="quotedblright" unicode="&#x201d;" horiz-adv-x="827" 
d="M461 1430l198 116q70 -74 70 -190q0 -129 -61.5 -218t-143.5 -134l-108 100q92 76 92 199q0 80 -47 127zM129 1430l199 116q70 -74 69 -190q0 -129 -61.5 -218t-142.5 -134l-109 100q92 76 92 199q0 80 -47 127z" />
    <glyph glyph-name="bullet" unicode="&#x2022;" horiz-adv-x="583" 
d="M51 541q0 100 71 170.5t169 70.5t169.5 -70.5t71.5 -170.5q0 -96 -71.5 -168t-169.5 -72t-169 72t-71 168z" />
    <glyph glyph-name="ellipsis" unicode="&#x2026;" horiz-adv-x="1767" 
d="M1341 154q0 57 45.5 104t118.5 47q63 0 106.5 -47t43.5 -104q0 -66 -43 -115t-107 -49q-74 0 -119 49t-45 115zM727 154q0 57 45 104t119 47q63 0 106 -47t43 -104q0 -66 -43 -115t-106 -49q-74 0 -119 49t-45 115zM113 154q0 57 45 104t118 47q63 0 106.5 -47t43.5 -104
q0 -66 -43 -115t-107 -49q-74 0 -118.5 49t-44.5 115z" />
    <glyph glyph-name="uni202F" unicode="&#x202f;" horiz-adv-x="363" 
 />
    <glyph glyph-name="guilsinglleft" unicode="&#x2039;" horiz-adv-x="718" 
d="M471 45l-395 463v8l403 463l154 -137l-285 -330l283 -334z" />
    <glyph glyph-name="guilsinglright" unicode="&#x203a;" horiz-adv-x="718" 
d="M643 508l-395 -463l-160 133l283 334l-285 330l154 137l403 -463v-8z" />
    <glyph glyph-name="uni205F" unicode="&#x205f;" horiz-adv-x="454" 
 />
    <glyph glyph-name="Euro" unicode="&#x20ac;" 
d="M37 813l72 191h153q72 207 244 329.5t418 122.5q166 0 270 -57l-88 -217q-74 39 -184 39q-119 0 -217.5 -56.5t-157.5 -160.5h512l-72 -191h-500q-6 -47 -6 -96t4 -72h455l-63 -190h-334q59 -115 167.5 -178.5t243.5 -63.5q113 0 179 31l38 -228q-90 -39 -237 -39
q-248 0 -428 127t-252 351h-215l72 190h106q-2 23 -2 72q0 31 4 96h-182z" />
    <glyph glyph-name="afii61352" unicode="&#x2116;" horiz-adv-x="2435" 
d="M1382 0h-200l-748 993v-993h-235v1434h200l748 -998v998h235v-1434zM1495 983q0 164 113.5 264.5t290 100.5t290 -100.5t113.5 -264.5t-113.5 -265.5t-290 -101.5t-290 101.5t-113.5 265.5zM1714 983q0 -80 53.5 -128t130.5 -48q80 0 131.5 48t51.5 128q0 78 -52.5 126
t-130 48t-131 -48t-53.5 -126zM1571 299v219h653v-219h-653z" />
    </font>
</defs>
</svg>
