<?xml version="1.0" encoding="UTF-8"?>
<svg viewBox="0 0 11 7" version="1.1" xmlns="http://www.w3.org/2000/svg" xmlns:xlink="http://www.w3.org/1999/xlink">
    <g id="Desktop" stroke="none" stroke-width="1" fill="none" fill-rule="evenodd">
        <g id="Home---Dropdown-Example" transform="translate(-848.000000, -35.000000)" fill="currentColor">
            <g id="Nav">
                <g id="Form-/-Dropdown-Link-Copy" transform="translate(798.000000, 29.000000)">
                    <g id="Icon" transform="translate(47.444994, 0.369800)">
                        <path d="M10.3261245,13.7999993 C10.2843777,13.7971357 10.2737512,13.7974807 10.2324185,13.7903734 C10.1394715,13.7743302 10.0500782,13.7391042 9.9712078,13.687352 C9.93132409,13.6611999 9.8965121,13.6307696 9.86173461,13.5983037 L5.72155737,9.45812647 C5.69299015,9.42752366 5.6850203,9.42055436 5.65966172,9.38712243 C5.631198,9.34958483 5.60659845,9.30911459 5.58634608,9.26653977 C5.49788429,9.08054231 5.49788429,8.85983636 5.58634608,8.6738389 C5.60659845,8.63126408 5.631198,8.59079384 5.65966172,8.55325624 C5.6850203,8.51985881 5.69299015,8.51285501 5.72155737,8.4822867 L9.86173461,4.34210946 C9.89233742,4.31354223 9.89934122,4.30553789 9.93273865,4.28021381 C10.0204414,4.21366046 10.1239458,4.16873953 10.2324185,4.15000523 C10.3098743,4.13668766 10.3894692,4.13668766 10.466925,4.15000523 C10.5288552,4.16070069 10.5892673,4.17988351 10.6460222,4.20686367 C10.8615874,4.30936756 11.0116688,4.52200016 11.0360959,4.75943932 C11.0457218,4.85328334 11.0358889,4.94885243 11.0073562,5.03876328 C10.9835846,5.11366599 10.9469786,5.18435951 10.8995045,5.24694519 C10.8741459,5.28037712 10.8661761,5.28734642 10.8376089,5.31794923 L7.18535153,8.97020659 L10.8376089,12.6224639 L10.8697643,12.6568964 C10.8961579,12.6893278 10.9036792,12.6968836 10.9266572,12.7319371 C10.9697495,12.7976279 11.0014909,12.8706676 11.0200872,12.9469848 C11.0349573,13.0080524 11.0414436,13.0711211 11.0393045,13.1339138 C11.0311622,13.3724915 10.8959164,13.5948536 10.6878725,13.7118481 C10.619387,13.7503517 10.5443463,13.7770214 10.466925,13.7903734 C10.4255922,13.7974807 10.4149658,13.7971357 10.373219,13.7999993 L10.3261245,13.7999993 L10.3261245,13.7999993 Z" id="Shape" transform="translate(8.279842, 8.970000) scale(-1, 1) rotate(-90.000000) translate(-8.279842, -8.970000) "></path>
                    </g>
                </g>
            </g>
        </g>
    </g>
</svg>