<svg xmlns="http://www.w3.org/2000/svg" width="165" height="34" viewBox="0 0 165 34">
    <g fill="none" fill-rule="nonzero">
        <g fill="#43B072">
            <path d="M39.574 21.495l-9.499-9.132-9.155 8.802-9.157-8.802-9.498 9.132C.855 22.85.078 24.66.078 26.588c0 1.929.776 3.738 2.187 5.094 1.409 1.355 3.289 2.101 5.295 2.101 2.005 0 3.885-.746 5.294-2.101l8.066-7.754 8.065 7.754c1.41 1.355 3.29 2.101 5.295 2.101s3.886-.746 5.295-2.101c1.41-1.357 2.187-3.165 2.187-5.094 0-1.928-.777-3.737-2.188-5.093zm-20.091 1.052l-8.063 7.75c-1.026.986-2.397 1.53-3.86 1.53-1.465 0-2.837-.544-3.862-1.53a5.103 5.103 0 0 1-1.59-3.709c0-1.406.564-2.723 1.59-3.709l8.065-7.753 7.72 7.42zm20.249 4.04a5.102 5.102 0 0 1-1.591 3.71c-1.026.986-2.397 1.529-3.861 1.529-1.464 0-2.836-.543-3.862-1.53l-8.061-7.75 7.718-7.42 8.066 7.753a5.106 5.106 0 0 1 1.59 3.709zM16.207 12.174c.845 0 1.532-.662 1.532-1.476 0-.813-.687-1.475-1.532-1.475s-1.532.662-1.532 1.475c0 .814.687 1.476 1.532 1.476zM16.207 6.5c.845 0 1.532-.662 1.532-1.475 0-.814-.687-1.476-1.532-1.476s-1.532.662-1.532 1.476c0 .813.687 1.475 1.532 1.475zM20.215 8.151c.845 0 1.532-.662 1.532-1.475 0-.814-.687-1.476-1.532-1.476s-1.533.662-1.533 1.476c0 .813.688 1.475 1.533 1.475zM25.632 9.019c.844 0 1.532-.662 1.532-1.475 0-.814-.687-1.476-1.532-1.476S24.1 6.73 24.1 7.544c0 .813.687 1.475 1.532 1.475z"/>
            <path d="M21.756 9.985c-.844 0-1.532.662-1.532 1.475 0 .814.688 1.476 1.532 1.476.845 0 1.532-.662 1.532-1.476 0-.813-.687-1.475-1.532-1.475zM17.053 15.44c0 .814.687 1.476 1.532 1.476s1.532-.662 1.532-1.476c0-.813-.687-1.475-1.532-1.475s-1.532.662-1.532 1.475z"/>
            <ellipse cx="24.707" cy="14.466" rx="1.532" ry="1.475"/>
            <path d="M21.756 3.367c.845 0 1.532-.662 1.532-1.476 0-.813-.687-1.475-1.532-1.475s-1.532.662-1.532 1.475c0 .814.688 1.476 1.532 1.476z"/>
        </g>
        <g fill="#FFF">
            <path d="M57.784 12.257a7.389 7.389 0 0 0-5.222 2.17v-1.946h-2.644v20.814h2.644v-8.242c1.392 1.42 3.265 2.225 5.222 2.225 4.176 0 7.703-3.454 7.703-7.542 0-4.124-3.456-7.479-7.703-7.479zm4.961 7.478c0 2.759-2.196 5.003-4.895 5.003-2.747 0-5.157-2.338-5.157-5.003 0-2.677 2.362-4.938 5.157-4.938 2.745 0 4.895 2.17 4.895 4.938zM80.427 14.428a7.392 7.392 0 0 0-5.223-2.17c-4.247 0-7.702 3.354-7.702 7.477 0 4.089 3.527 7.543 7.702 7.543 1.957 0 3.83-.805 5.223-2.225v1.938h2.644V12.48h-2.644v1.947zm-5.288.369c2.795 0 5.157 2.261 5.157 4.938 0 2.665-2.41 5.003-5.157 5.003-2.7 0-4.895-2.244-4.895-5.003 0-2.769 2.15-4.938 4.895-4.938zM89.861 14.068v-1.586h-2.643v14.445h2.643v-7.955c0-2.869 2.42-4.175 4.666-4.175h.223v-2.54h-.223c-1.78 0-3.417.64-4.666 1.811zM109.034 14.428a7.389 7.389 0 0 0-5.223-2.17c-4.247 0-7.702 3.354-7.702 7.477 0 4.089 3.527 7.543 7.702 7.543 1.958 0 3.831-.805 5.223-2.225v1.938h2.643V12.48h-2.643v1.947zm-.131 5.307c0 2.665-2.41 5.003-5.158 5.003-2.699 0-4.895-2.244-4.895-5.003 0-2.769 2.15-4.938 4.895-4.938 2.796 0 5.158 2.261 5.158 4.938zM127.7 14.275c-1.393-1.369-3.242-2.144-5.157-2.144-4.175 0-7.703 3.453-7.703 7.54 0 4.124 3.455 7.479 7.703 7.479 1.92 0 3.77-.756 5.157-2.09v.375c0 3.743-1.669 5.64-4.96 5.64-1.793 0-3.465-1.006-4.365-2.625l-.064-.114h-2.94l.104.291c1.07 2.983 3.99 4.986 7.264 4.986 5.678 0 7.702-4.224 7.702-8.178V12.48h-2.742v1.794zm-.065 5.397c0 2.678-2.362 4.94-5.158 4.94-2.744 0-4.895-2.17-4.895-4.94 0-2.759 2.196-5.003 4.895-5.003 2.748 0 5.158 2.338 5.158 5.003zM140.98 12.257c-4.247 0-7.702 3.355-7.702 7.478 0 4.089 3.527 7.543 7.702 7.543s7.702-3.454 7.702-7.543c0-4.123-3.455-7.478-7.702-7.478zm4.96 7.478c0 2.759-2.225 5.003-4.96 5.003-2.736 0-4.961-2.244-4.961-5.003 0-2.769 2.18-4.938 4.96-4.938 2.782 0 4.96 2.17 4.96 4.938zM158.825 12.258c-1.769 0-3.313.554-4.501 1.607v-1.384h-2.643v14.446h2.643v-7.67c0-1.483.404-2.624 1.2-3.389.773-.742 1.883-1.106 3.301-1.071 2.312 0 3.485 1.319 3.485 3.92v8.21h2.643v-8.21c0-4.527-1.833-6.46-6.128-6.46z"/>
        </g>
    </g>
</svg>
